<svg width="57" height="65" viewBox="0 0 57 65" fill="current" xmlns="http://www.w3.org/2000/svg">
<path d="M50.8422 28.6513C53.2585 28.6513 55.2188 26.8775 55.2188 24.6957C55.2188 22.1225 53.6237 18.9932 50.844 15.5938C48.108 18.9414 46.4657 22.1225 46.4657 24.6957C46.4657 26.8775 48.4242 28.6513 50.8422 28.6513V28.6513ZM50.844 18.4274C52.5478 20.8651 53.4375 23.0071 53.4375 24.6957C53.4375 25.9985 52.2726 27.0576 50.8422 27.0576C49.4119 27.0576 48.2469 25.9985 48.2469 24.6957C48.2469 23.0103 49.1385 20.8683 50.844 18.4274" fill="current"/>
<path d="M39.5607 29.347C38.8321 27.5716 37.6066 25.6431 35.9483 23.6159C34.8154 25.0025 33.8829 26.3571 33.1642 27.656C31.8979 27.4638 30.6183 27.3496 29.3345 27.3142V24.3092C29.3345 24.1109 29.2465 23.9208 29.0898 23.7806C28.9332 23.6405 28.7207 23.5617 28.4991 23.5617C28.2775 23.5617 28.0651 23.6405 27.9084 23.7806C27.7517 23.9208 27.6637 24.1109 27.6637 24.3092V27.3142C26.4106 27.3535 25.1618 27.4679 23.9258 27.6568C24.3971 27.2872 24.7749 26.8318 25.0342 26.3212C25.2934 25.8106 25.428 25.2565 25.4291 24.6957C25.4291 22.1225 23.834 18.9932 21.0544 15.5938C18.3184 18.9414 16.6761 22.1225 16.6761 24.6957C16.6748 25.5668 16.9962 26.4137 17.59 27.104C18.1838 27.7943 19.0166 28.2891 19.958 28.5111C16.4775 29.5078 13.2543 31.1159 10.4773 33.2413C10.5022 33.0692 10.5352 32.8987 10.5352 32.721C10.5352 30.1479 8.93831 27.0154 6.15867 23.6159C3.42356 26.9636 1.78125 30.1471 1.78125 32.7202C1.78125 34.9036 3.73973 36.6751 6.15778 36.6751C6.39736 36.6751 6.62625 36.644 6.85603 36.6113C4.43175 39.3518 2.65852 42.5552 1.78125 46.0575C2.58673 45.3161 3.55072 44.7273 4.6158 44.3262C5.68089 43.9251 6.8253 43.7198 7.98089 43.7226C9.30196 43.7186 10.6063 43.9871 11.7926 44.5073C12.9788 45.0275 14.0151 45.7854 14.8209 46.7221C15.6269 45.7856 16.6632 45.0278 17.8494 44.5076C19.0356 43.9875 20.3399 43.7189 21.6609 43.7226C23.903 43.7198 26.0576 44.5007 27.6655 45.8989V52.9473H26.8301V57.4297C26.8289 58.2219 26.4766 58.9814 25.8506 59.5416C25.2245 60.1017 24.3757 60.4169 23.4902 60.418C22.6047 60.4171 21.7558 60.102 21.1297 59.5418C20.5035 58.9816 20.1513 58.222 20.1504 57.4297C20.1362 57.0419 19.9541 56.6742 19.6425 56.4043C19.3308 56.1344 18.9142 55.9836 18.4805 55.9836C18.0468 55.9836 17.6301 56.1344 17.3185 56.4043C17.0068 56.6742 16.8247 57.0419 16.8105 57.4297C16.8105 60.7248 19.8057 63.4062 23.4902 63.4062C27.173 63.4062 30.1699 60.7248 30.1699 57.4297V52.9473H29.3345V45.8981C30.9423 44.4999 33.0971 43.7193 35.3391 43.7226C36.66 43.7187 37.9642 43.9873 39.1503 44.5075C40.3364 45.0277 41.3725 45.7855 42.1782 46.7221C42.9842 45.7856 44.0205 45.0278 45.2067 44.5076C46.393 43.9875 47.6972 43.7189 49.0182 43.7226C50.1739 43.7198 51.3185 43.925 52.3837 44.3262C53.449 44.7273 54.4131 45.3161 55.2188 46.0575C53.3386 38.5565 47.4213 32.3863 39.5607 29.347ZM18.4582 24.6957C18.4582 23.0103 19.3497 20.8683 21.0553 18.4274C22.759 20.8659 23.6488 23.0071 23.6488 24.6957C23.6488 25.9985 22.4838 27.0576 21.0535 27.0576C19.6231 27.0576 18.4582 25.9985 18.4582 24.6957V24.6957ZM3.5625 32.7202C3.5625 31.0603 4.47272 28.8816 6.16223 26.452C7.86511 28.8904 8.75484 31.0308 8.75484 32.7202C8.75484 34.0215 7.58991 35.0813 6.15778 35.0813C4.72744 35.0813 3.5625 34.0215 3.5625 32.7202V32.7202ZM35.951 26.452C37.6538 28.8904 38.5436 31.0308 38.5436 32.7202C38.5436 34.0215 37.3786 35.0813 35.9465 35.0813C34.5162 35.0813 33.3512 34.0215 33.3512 32.7202C33.3512 31.0603 34.2623 28.8816 35.951 26.452Z" fill="current"/>
<path d="M17 0C15.29 0 14.25 0.33 13.65 0.61C12.88 0.23 12 0 11 0C10 0 9.12 0.23 8.35 0.61C7.75 0.33 6.71 0 5 0C2 0 0 8 0 10C0 10.83 1.32 11.59 3.14 11.9C3.78 14.14 6.8 15.85 10.5 16V11.72C9.91 11.35 9 10.68 9 10C9 9 11 9 11 9C11 9 13 9 13 10C13 10.68 12.09 11.35 11.5 11.72V16C15.2 15.85 18.22 14.14 18.86 11.9C20.68 11.59 22 10.83 22 10C22 8 20 0 17 0ZM3.15 9.87C2.65 9.75 2.26 9.61 2 9.5C2.25 6.73 4.2 2.4 5.05 2C5.59 2 6 2.06 6.37 2.11C4.27 4.42 3.44 8.04 3.15 9.87V9.87ZM8 8C7.73478 8 7.48043 7.89464 7.29289 7.70711C7.10536 7.51957 7 7.26522 7 7C7 6.46 7.45 6 8 6C8.26522 6 8.51957 6.10536 8.70711 6.29289C8.89464 6.48043 9 6.73478 9 7C9 7.56 8.55 8 8 8ZM14 8C13.7348 8 13.4804 7.89464 13.2929 7.70711C13.1054 7.51957 13 7.26522 13 7C13 6.46 13.45 6 14 6C14.2652 6 14.5196 6.10536 14.7071 6.29289C14.8946 6.48043 15 6.73478 15 7C15 7.56 14.55 8 14 8ZM18.85 9.87C18.56 8.04 17.73 4.42 15.63 2.11C16 2.06 16.41 2 16.95 2C17.8 2.4 19.75 6.73 20 9.5C19.75 9.61 19.36 9.75 18.85 9.87V9.87Z" fill="current"/>
<path d="M38.93 9.5L37.6 9.59C36.74 8.57 34.33 6 31.93 6C31.93 6 29.96 8.96 31.89 12.91C31.34 13.74 31 14.17 30.93 15.16L29 15.45L29.21 16.43L30.97 16.17L31.11 16.88L29.54 17.82L30.01 18.71L31.46 17.82C32.61 20.26 35.52 21.5 38.93 21.5C42.34 21.5 45.25 20.26 46.4 17.82L47.85 18.71L48.32 17.82L46.75 16.88L46.89 16.17L48.65 16.43L48.86 15.45L46.93 15.16C46.86 14.17 46.52 13.74 45.97 12.91C47.9 8.96 45.93 6 45.93 6C43.53 6 41.12 8.57 40.26 9.59L38.93 9.5ZM35.93 12.5C36.1952 12.5 36.4496 12.6054 36.6371 12.7929C36.8246 12.9804 36.93 13.2348 36.93 13.5C36.93 13.7652 36.8246 14.0196 36.6371 14.2071C36.4496 14.3946 36.1952 14.5 35.93 14.5C35.6648 14.5 35.4104 14.3946 35.2229 14.2071C35.0354 14.0196 34.93 13.7652 34.93 13.5C34.93 13.2348 35.0354 12.9804 35.2229 12.7929C35.4104 12.6054 35.6648 12.5 35.93 12.5V12.5ZM41.93 12.5C42.1952 12.5 42.4496 12.6054 42.6371 12.7929C42.8246 12.9804 42.93 13.2348 42.93 13.5C42.93 13.7652 42.8246 14.0196 42.6371 14.2071C42.4496 14.3946 42.1952 14.5 41.93 14.5C41.6648 14.5 41.4104 14.3946 41.2229 14.2071C41.0354 14.0196 40.93 13.7652 40.93 13.5C40.93 13.2348 41.0354 12.9804 41.2229 12.7929C41.4104 12.6054 41.6648 12.5 41.93 12.5V12.5ZM37.93 15.5H39.93L39.23 16.89C39.43 17.53 39.99 18 40.68 18C41.0778 18 41.4594 17.842 41.7407 17.5607C42.022 17.2794 42.18 16.8978 42.18 16.5H42.68C42.68 17.0304 42.4693 17.5391 42.0942 17.9142C41.7191 18.2893 41.2104 18.5 40.68 18.5C39.93 18.5 39.28 18.09 38.93 17.5C38.58 18.09 37.93 18.5 37.18 18.5C36.6496 18.5 36.1409 18.2893 35.7658 17.9142C35.3907 17.5391 35.18 17.0304 35.18 16.5H35.68C35.68 16.8978 35.838 17.2794 36.1193 17.5607C36.4006 17.842 36.7822 18 37.18 18C37.87 18 38.43 17.53 38.63 16.89L37.93 15.5Z" fill="current"/>
</svg>
