<?xml version="1.0" encoding="utf-8"?>
<!-- Generator: Adobe Illustrator 14.0.0, SVG Export Plug-In . SVG Version: 6.00 Build 43363)  -->
<!DOCTYPE svg PUBLIC "-//W3C//DTD SVG 1.1//EN" "http://www.w3.org/Graphics/SVG/1.1/DTD/svg11.dtd">
<svg version="1.1" id="Layer_1" xmlns="http://www.w3.org/2000/svg" xmlns:xlink="http://www.w3.org/1999/xlink" x="0px" y="0px"
	  viewBox="0 0 40 40" enable-background="new 0 0 40 40" xml:space="preserve">

<g>
	<path fill="#010101" d="M29.364,15.71c-0.431,0-0.78,0.35-0.78,0.78v3.901c0,4.733-3.851,8.585-8.584,8.585
		s-8.585-3.852-8.585-8.585v-3.901c0-0.431-0.35-0.78-0.78-0.78c-0.432,0-0.78,0.35-0.78,0.78v3.901
		c0,5.331,4.134,9.716,9.365,10.116v3.932h-5.463c-0.432,0-0.781,0.349-0.781,0.78c0,0.431,0.35,0.78,0.781,0.78h12.486
		c0.431,0,0.78-0.35,0.78-0.78c0-0.432-0.35-0.78-0.78-0.78H20.78v-3.932c5.23-0.4,9.365-4.785,9.365-10.116v-3.901
		C30.146,16.06,29.796,15.71,29.364,15.71z"/>
	<path fill="#010101" d="M20,27.025c3.657,0,6.633-2.975,6.633-6.633v-9.76C26.633,6.976,23.657,4,20,4s-6.633,2.976-6.633,6.633
		v9.76C13.367,24.051,16.343,27.025,20,27.025z M14.928,10.633c0-2.797,2.275-5.072,5.072-5.072s5.072,2.275,5.072,5.072v9.76
		c0,2.797-2.275,5.072-5.072,5.072s-5.072-2.275-5.072-5.072V10.633z"/>
</g>
</svg>
