<?xml version="1.0" encoding="UTF-8" standalone="no"?> <svg width="512" height="512" viewBox="0 0 512 512" fill="none" xmlns="http://www.w3.org/2000/svg">
<path fill-rule="evenodd" clip-rule="evenodd" d="M128 24C70.5624 24 24 70.5624 24 128V384C24 441.438 70.5624 488 128 488H384C441.438 488 488 441.438 488 384V128C488 70.5624 441.438 24 384 24H128ZM40 128C40 79.3989 79.3989 40 128 40H384C432.601 40 472 79.3989 472 128V384C472 432.601 432.601 472 384 472H128C79.3989 472 40 432.601 40 384V128ZM256 168C225.072 168 200 193.072 200 224V288C200 318.928 225.072 344 256 344C286.928 344 312 318.928 312 288V224C312 193.072 286.928 168 256 168ZM216 224C216 201.909 233.909 184 256 184C278.091 184 296 201.909 296 224V288C296 310.091 278.091 328 256 328C233.909 328 216 310.091 216 288V224ZM248 224C248 219.582 251.582 216 256 216C260.418 216 264 219.582 264 224V288C264 292.418 260.418 296 256 296C251.582 296 248 292.418 248 288V224ZM256 200C242.745 200 232 210.745 232 224V288C232 301.255 242.745 312 256 312C269.255 312 280 301.255 280 288V224C280 210.745 269.255 200 256 200ZM320 224C320 193.072 345.072 168 376 168C402.132 168 424.021 185.875 430.234 210.018C433.538 222.854 425.811 235.939 412.974 239.242C410.189 239.959 407.393 240.157 404.687 239.896C421.046 249.672 432 267.557 432 288C432 318.928 406.928 344 376 344C349.868 344 327.979 326.125 321.766 301.982C318.462 289.146 326.189 276.061 339.026 272.758C341.811 272.041 344.607 271.843 347.313 272.104C330.954 262.328 320 244.443 320 224ZM360.78 277.907C364.318 280.986 366.993 285.132 368.251 290.018C369.136 293.456 372.288 296 376 296C380.418 296 384 292.418 384 288C384 283.582 380.418 280 376 280C370.724 280 365.619 279.27 360.78 277.907ZM391.22 234.093C387.682 231.014 385.007 226.868 383.749 221.982C382.864 218.543 379.712 216 376 216C371.582 216 368 219.582 368 224C368 228.418 371.582 232 376 232C381.276 232 386.381 232.73 391.22 234.093ZM376 184C353.909 184 336 201.909 336 224C336 246.091 353.909 264 376 264C389.255 264 400 274.745 400 288C400 301.255 389.255 312 376 312C364.845 312 355.425 304.376 352.756 294.006C351.654 289.727 347.293 287.151 343.014 288.253C338.735 289.354 336.159 293.715 337.261 297.994C341.702 315.25 357.356 328 376 328C398.091 328 416 310.091 416 288C416 265.909 398.091 248 376 248C362.745 248 352 237.255 352 224C352 210.745 362.745 200 376 200C387.155 200 396.575 207.624 399.244 217.994C400.346 222.273 404.707 224.849 408.986 223.747C413.265 222.646 415.841 218.285 414.739 214.006C410.298 196.75 394.644 184 376 184ZM136 168C105.072 168 80 193.072 80 224C80 244.443 90.9543 262.328 107.313 272.104C104.607 271.843 101.811 272.041 99.0259 272.758C86.1895 276.061 78.4618 289.146 81.7657 301.982C87.9795 326.125 109.868 344 136 344C166.928 344 192 318.928 192 288C192 267.557 181.046 249.672 164.687 239.896C167.393 240.157 170.189 239.959 172.974 239.242C185.811 235.939 193.538 222.854 190.234 210.018C184.021 185.875 162.132 168 136 168ZM128.251 290.018C126.993 285.132 124.318 280.986 120.78 277.907C125.619 279.27 130.724 280 136 280C140.418 280 144 283.582 144 288C144 292.418 140.418 296 136 296C132.288 296 129.136 293.457 128.251 290.018ZM143.749 221.982C145.007 226.868 147.682 231.014 151.22 234.093C146.381 232.73 141.276 232 136 232C131.582 232 128 228.418 128 224C128 219.582 131.582 216 136 216C139.712 216 142.864 218.543 143.749 221.982ZM96 224C96 201.909 113.909 184 136 184C154.644 184 170.298 196.75 174.739 214.006C175.841 218.285 173.265 222.646 168.986 223.747C164.707 224.849 160.346 222.273 159.244 217.994C156.575 207.624 147.155 200 136 200C122.745 200 112 210.745 112 224C112 237.255 122.745 248 136 248C158.091 248 176 265.909 176 288C176 310.091 158.091 328 136 328C117.356 328 101.702 315.25 97.2606 297.994C96.1593 293.715 98.7352 289.354 103.014 288.253C107.293 287.151 111.654 289.727 112.756 294.006C115.425 304.376 124.845 312 136 312C149.255 312 160 301.255 160 288C160 274.745 149.255 264 136 264C113.909 264 96 246.091 96 224Z" fill="current"/>
</svg>
